<mxfile host="app.diagrams.net" modified="2023-10-03T18:17:38.407Z" agent="Mozilla/5.0 (Windows NT 10.0; Win64; x64) AppleWebKit/537.36 (KHTML, like Gecko) Chrome/117.0.0.0 Safari/537.36" etag="MtOyfp1nsKbc54uGScP-" version="22.0.2" type="device">
  <diagram id="C5RBs43oDa-KdzZeNtuy" name="Page-1">
    <mxGraphModel dx="1195" dy="632" grid="1" gridSize="10" guides="1" tooltips="1" connect="1" arrows="1" fold="1" page="1" pageScale="1" pageWidth="827" pageHeight="1169" math="0" shadow="0">
      <root>
        <mxCell id="WIyWlLk6GJQsqaUBKTNV-0" />
        <mxCell id="WIyWlLk6GJQsqaUBKTNV-1" parent="WIyWlLk6GJQsqaUBKTNV-0" />
        <mxCell id="NNj73pJ5o8QrJ1JKOemf-13" style="edgeStyle=orthogonalEdgeStyle;rounded=0;orthogonalLoop=1;jettySize=auto;html=1;exitX=0;exitY=0.5;exitDx=0;exitDy=0;entryX=0.5;entryY=0;entryDx=0;entryDy=0;" edge="1" parent="WIyWlLk6GJQsqaUBKTNV-1" source="WIyWlLk6GJQsqaUBKTNV-6" target="NNj73pJ5o8QrJ1JKOemf-3">
          <mxGeometry relative="1" as="geometry" />
        </mxCell>
        <mxCell id="NNj73pJ5o8QrJ1JKOemf-14" style="edgeStyle=orthogonalEdgeStyle;rounded=0;orthogonalLoop=1;jettySize=auto;html=1;exitX=1;exitY=0.5;exitDx=0;exitDy=0;entryX=0.5;entryY=0;entryDx=0;entryDy=0;" edge="1" parent="WIyWlLk6GJQsqaUBKTNV-1" source="WIyWlLk6GJQsqaUBKTNV-6" target="NNj73pJ5o8QrJ1JKOemf-1">
          <mxGeometry relative="1" as="geometry" />
        </mxCell>
        <mxCell id="WIyWlLk6GJQsqaUBKTNV-6" value="Ваш персонаж мужского пола?" style="rhombus;whiteSpace=wrap;html=1;shadow=0;fontFamily=Helvetica;fontSize=12;align=center;strokeWidth=1;spacing=6;spacingTop=-4;" parent="WIyWlLk6GJQsqaUBKTNV-1" vertex="1">
          <mxGeometry x="380" y="20" width="120" height="100" as="geometry" />
        </mxCell>
        <mxCell id="NNj73pJ5o8QrJ1JKOemf-18" style="edgeStyle=orthogonalEdgeStyle;rounded=0;orthogonalLoop=1;jettySize=auto;html=1;exitX=1;exitY=0.5;exitDx=0;exitDy=0;" edge="1" parent="WIyWlLk6GJQsqaUBKTNV-1" source="NNj73pJ5o8QrJ1JKOemf-0" target="NNj73pJ5o8QrJ1JKOemf-7">
          <mxGeometry relative="1" as="geometry" />
        </mxCell>
        <mxCell id="NNj73pJ5o8QrJ1JKOemf-19" style="edgeStyle=orthogonalEdgeStyle;rounded=0;orthogonalLoop=1;jettySize=auto;html=1;exitX=0;exitY=0.5;exitDx=0;exitDy=0;entryX=0.5;entryY=0;entryDx=0;entryDy=0;" edge="1" parent="WIyWlLk6GJQsqaUBKTNV-1" source="NNj73pJ5o8QrJ1JKOemf-0" target="NNj73pJ5o8QrJ1JKOemf-10">
          <mxGeometry relative="1" as="geometry" />
        </mxCell>
        <mxCell id="NNj73pJ5o8QrJ1JKOemf-0" value="Есть у вашего персонажа усы?" style="rhombus;whiteSpace=wrap;html=1;" vertex="1" parent="WIyWlLk6GJQsqaUBKTNV-1">
          <mxGeometry x="700" y="205" width="130" height="100" as="geometry" />
        </mxCell>
        <mxCell id="NNj73pJ5o8QrJ1JKOemf-15" style="edgeStyle=orthogonalEdgeStyle;rounded=0;orthogonalLoop=1;jettySize=auto;html=1;exitX=1;exitY=0.5;exitDx=0;exitDy=0;entryX=0.5;entryY=0;entryDx=0;entryDy=0;" edge="1" parent="WIyWlLk6GJQsqaUBKTNV-1" source="NNj73pJ5o8QrJ1JKOemf-1" target="NNj73pJ5o8QrJ1JKOemf-0">
          <mxGeometry relative="1" as="geometry" />
        </mxCell>
        <mxCell id="NNj73pJ5o8QrJ1JKOemf-26" style="edgeStyle=orthogonalEdgeStyle;rounded=0;orthogonalLoop=1;jettySize=auto;html=1;exitX=0;exitY=0.5;exitDx=0;exitDy=0;entryX=0.5;entryY=0;entryDx=0;entryDy=0;" edge="1" parent="WIyWlLk6GJQsqaUBKTNV-1" source="NNj73pJ5o8QrJ1JKOemf-1" target="NNj73pJ5o8QrJ1JKOemf-6">
          <mxGeometry relative="1" as="geometry" />
        </mxCell>
        <mxCell id="NNj73pJ5o8QrJ1JKOemf-1" value="Ваш персонаж актер?" style="rhombus;whiteSpace=wrap;html=1;" vertex="1" parent="WIyWlLk6GJQsqaUBKTNV-1">
          <mxGeometry x="600" y="90" width="143" height="110" as="geometry" />
        </mxCell>
        <mxCell id="NNj73pJ5o8QrJ1JKOemf-16" style="edgeStyle=orthogonalEdgeStyle;rounded=0;orthogonalLoop=1;jettySize=auto;html=1;exitX=1;exitY=0.5;exitDx=0;exitDy=0;" edge="1" parent="WIyWlLk6GJQsqaUBKTNV-1" source="NNj73pJ5o8QrJ1JKOemf-2" target="NNj73pJ5o8QrJ1JKOemf-9">
          <mxGeometry relative="1" as="geometry" />
        </mxCell>
        <mxCell id="NNj73pJ5o8QrJ1JKOemf-17" style="edgeStyle=orthogonalEdgeStyle;rounded=0;orthogonalLoop=1;jettySize=auto;html=1;exitX=0;exitY=0.5;exitDx=0;exitDy=0;entryX=0.5;entryY=0;entryDx=0;entryDy=0;" edge="1" parent="WIyWlLk6GJQsqaUBKTNV-1" source="NNj73pJ5o8QrJ1JKOemf-2" target="NNj73pJ5o8QrJ1JKOemf-5">
          <mxGeometry relative="1" as="geometry" />
        </mxCell>
        <mxCell id="NNj73pJ5o8QrJ1JKOemf-2" value="Ваш персонаж владеет русским языком?" style="rhombus;whiteSpace=wrap;html=1;" vertex="1" parent="WIyWlLk6GJQsqaUBKTNV-1">
          <mxGeometry x="270" y="175" width="170" height="90" as="geometry" />
        </mxCell>
        <mxCell id="NNj73pJ5o8QrJ1JKOemf-11" style="edgeStyle=orthogonalEdgeStyle;rounded=0;orthogonalLoop=1;jettySize=auto;html=1;exitX=0;exitY=0.5;exitDx=0;exitDy=0;entryX=0.5;entryY=0;entryDx=0;entryDy=0;" edge="1" parent="WIyWlLk6GJQsqaUBKTNV-1" source="NNj73pJ5o8QrJ1JKOemf-3" target="NNj73pJ5o8QrJ1JKOemf-4">
          <mxGeometry relative="1" as="geometry">
            <mxPoint x="180" y="129.66666666666674" as="targetPoint" />
          </mxGeometry>
        </mxCell>
        <mxCell id="NNj73pJ5o8QrJ1JKOemf-12" style="edgeStyle=orthogonalEdgeStyle;rounded=0;orthogonalLoop=1;jettySize=auto;html=1;exitX=1;exitY=0.5;exitDx=0;exitDy=0;entryX=0.5;entryY=0;entryDx=0;entryDy=0;" edge="1" parent="WIyWlLk6GJQsqaUBKTNV-1" source="NNj73pJ5o8QrJ1JKOemf-3" target="NNj73pJ5o8QrJ1JKOemf-2">
          <mxGeometry relative="1" as="geometry" />
        </mxCell>
        <mxCell id="NNj73pJ5o8QrJ1JKOemf-3" value="Ваш персонаж певец?" style="rhombus;whiteSpace=wrap;html=1;" vertex="1" parent="WIyWlLk6GJQsqaUBKTNV-1">
          <mxGeometry x="210" y="90" width="80" height="80" as="geometry" />
        </mxCell>
        <mxCell id="NNj73pJ5o8QrJ1JKOemf-4" value="Анджелина джоли" style="rounded=0;whiteSpace=wrap;html=1;" vertex="1" parent="WIyWlLk6GJQsqaUBKTNV-1">
          <mxGeometry x="90" y="200" width="120" height="60" as="geometry" />
        </mxCell>
        <mxCell id="NNj73pJ5o8QrJ1JKOemf-5" value="Леди Гага" style="rounded=0;whiteSpace=wrap;html=1;" vertex="1" parent="WIyWlLk6GJQsqaUBKTNV-1">
          <mxGeometry x="190" y="300" width="120" height="60" as="geometry" />
        </mxCell>
        <mxCell id="NNj73pJ5o8QrJ1JKOemf-6" value="Джастин Тимбирлейк" style="rounded=0;whiteSpace=wrap;html=1;" vertex="1" parent="WIyWlLk6GJQsqaUBKTNV-1">
          <mxGeometry x="520" y="225" width="120" height="60" as="geometry" />
        </mxCell>
        <mxCell id="NNj73pJ5o8QrJ1JKOemf-7" value="Дмитрий Назаров" style="rounded=0;whiteSpace=wrap;html=1;" vertex="1" parent="WIyWlLk6GJQsqaUBKTNV-1">
          <mxGeometry x="790" y="380" width="120" height="60" as="geometry" />
        </mxCell>
        <mxCell id="NNj73pJ5o8QrJ1JKOemf-9" value="Полина Гагарина" style="rounded=0;whiteSpace=wrap;html=1;" vertex="1" parent="WIyWlLk6GJQsqaUBKTNV-1">
          <mxGeometry x="400" y="300" width="120" height="60" as="geometry" />
        </mxCell>
        <mxCell id="NNj73pJ5o8QrJ1JKOemf-10" value="Дмитрий Нагиев" style="rounded=0;whiteSpace=wrap;html=1;" vertex="1" parent="WIyWlLk6GJQsqaUBKTNV-1">
          <mxGeometry x="611.5" y="370" width="120" height="60" as="geometry" />
        </mxCell>
      </root>
    </mxGraphModel>
  </diagram>
</mxfile>
